Coordinates
version=1
nRows=6
nColumns=36
inDegrees=yes

Units are S.I. units (second, meters, Newtons, ...)
If the header above contains a line with 'inDegrees', this indicates whether rotational values are in degrees (yes) or radians (no).

endheader
time	pelvis_tilt	pelvis_list	pelvis_rotation	pelvis_tx	pelvis_ty	pelvis_tz	hip_flexion_r	hip_adduction_r	hip_rotation_r	knee_angle_r	knee_angle_r_beta	ankle_angle_r	subtalar_angle_r	mtp_angle_r	hip_flexion_l	hip_adduction_l	hip_rotation_l	knee_angle_l	knee_angle_l_beta	ankle_angle_l	subtalar_angle_l	mtp_angle_l	lumbar_extension	lumbar_bending	lumbar_rotation	arm_flex_r	arm_add_r	arm_rot_r	elbow_flex_r	pro_sup_r	arm_flex_l	arm_add_l	arm_rot_l	elbow_flex_l	pro_sup_l
      1.48333330	    -19.02736555	      2.26591524	     -1.78075832	     -0.75250150	      1.14941670	     -0.07219964	     35.93665448	     -6.44174377	      2.75569863	     63.98088704	      1.11667714	     28.03916190	    -18.07140721	     -7.49999987	     34.06130494	     -2.30443267	     -3.76279534	     60.80315219	      1.06121520	     34.77615355	     -5.35050858	     -7.49999987	    -11.11188062	      0.43918153	      0.50875113	     97.53101122	     -2.27421614	     20.97050330	     81.74966397	     75.80136513	     95.75799321	      4.98366537	     14.91456435	     79.79998827	     48.26373321
      1.48750000	    -19.12482153	      2.52706234	     -1.59049920	     -0.74334763	      1.14928441	     -0.07329816	     35.27740064	     -6.95710462	      2.43997399	     63.65036595	      1.11090846	     27.25429820	    -18.10932566	     -7.49999987	     33.25687778	     -2.05455448	     -4.02406834	     60.22546287	      1.05113262	     34.51518199	     -4.98769395	     -7.49999987	    -10.21548113	      0.32093082	      0.49604883	     99.13613697	     -2.24621921	     21.07673223	     82.25178530	     76.06549378	     97.07607790	      4.77272928	     15.00855930	     80.49552901	     48.51653466
      1.49166670	    -18.90865725	      2.60211191	     -1.62280665	     -0.73561437	      1.15569554	     -0.07322638	     34.02950258	     -7.12125136	      2.32623285	     62.40848328	      1.08923351	     26.29874243	    -17.98155698	     -7.49999987	     31.88733037	     -2.04137587	     -4.48367631	     58.89503064	      1.02791220	     33.42441048	     -5.45631134	     -7.49999987	     -9.79224794	      0.39957802	      0.55612552	    100.72759919	     -2.26175205	     21.62063824	     82.98497716	     76.60903166	     98.22440139	      4.26253774	     15.31770265	     81.71600871	     49.16007673
      1.49583330	    -18.91606313	      2.67511566	     -1.53370616	     -0.72920417	      1.15606981	     -0.07257389	     33.38351726	     -7.33868426	      2.15172001	     62.11295583	      1.08407559	     25.64257903	    -17.67023325	     -7.49999987	     31.17960284	     -2.10429216	     -4.77776195	     58.32180708	      1.01790756	     32.76777577	     -5.53087834	     -7.49999987	     -9.13675896	      0.35782112	      0.69292829	    102.72740278	     -2.18415993	     21.92437272	     83.11779767	     76.21696740	     99.80803548	      4.14827047	     15.71408936	     82.26849345	     50.63912615
      1.50000000	    -19.16111978	      2.68120979	     -1.35915634	     -0.72239691	      1.16375708	     -0.07112697	     32.71862922	     -7.40361083	      1.80777977	     61.06181097	      1.06572965	     24.83216490	    -17.45792595	     -7.49999987	     30.58189014	     -2.26515082	     -5.09577028	     57.35456288	      1.00102596	     31.54975372	     -5.43339721	     -7.49999987	     -8.17319744	      0.34457848	      0.77721302	    104.00912537	     -2.02464207	     21.95449620	     83.08061270	     76.41347801	    101.10884583	      4.15680764	     15.78521827	     82.45914243	     50.90383750
      1.50416670	    -18.60157478	      2.58780446	     -1.22450144	     -0.71655926	      1.17078537	     -0.07054517	     31.22167618	     -7.34279418	      1.51385136	     59.84233887	      1.04444585	     23.18647716	    -18.16841474	     -7.49999987	     28.93037749	     -2.24237848	     -5.03992680	     55.83315706	      0.97447242	     30.11604659	     -5.93275738	     -7.49999987	     -8.37041837	      0.46523166	      0.58481087	    105.27819408	     -1.84940682	     22.34614276	     83.54333689	     76.95907218	    102.51550939	      3.51263539	     16.05734158	     83.11562265	     51.66641366
